<svg width="1440" height="866" viewBox="0 0 1440 866" fill="none" xmlns="http://www.w3.org/2000/svg">
<g filter="url(#filter0_f_14084_1597)">
<path opacity="0.15" d="M1339.19 334.88C1372.7 371.97 1399.88 436.451 1349.8 481.973C1344.63 486.666 1296.18 529.248 1223.3 523.96C1134.54 517.52 1116.34 447.812 1018.38 429.716C912.298 410.119 850.037 476.425 798.231 456.056C736.971 431.97 729.451 302.071 840.331 246.396C973.906 179.326 1249.08 235.151 1339.19 334.88Z" fill="#EBC136"/>
<path opacity="0.15" d="M504.245 526.639C535.307 507.569 569.155 469.149 548.134 430.285C545.966 426.279 525.262 389.654 476.679 380.834C417.505 370.09 388.162 413.52 320.092 408.996C246.375 404.096 222.688 349.301 183.971 354.114C138.189 359.806 100.627 445.21 158.513 501.149C228.248 568.538 420.723 577.917 504.245 526.639Z" fill="#EBC136"/>
<path opacity="0.15" d="M686.575 418.89C671.187 397.799 655.464 357.221 668.947 319.859C670.337 316.007 683.519 280.857 709.877 275.298C741.983 268.526 755.013 313.799 791.48 313.823C830.973 313.849 846.817 260.774 867.122 268.155C891.131 276.883 906.044 364.571 871.944 416.508C830.865 479.075 727.953 475.602 686.575 418.89Z" fill="#EBC136"/>
<path opacity="0.15" d="M674.467 371.802C691.284 361.124 709.622 339.633 698.276 317.936C697.107 315.699 685.931 295.254 659.654 290.363C627.649 284.407 611.745 308.693 574.923 306.218C535.047 303.538 522.27 272.943 501.321 275.661C476.55 278.876 456.17 326.62 487.448 357.828C525.128 395.423 629.247 400.514 674.467 371.802Z" fill="#EBC136"/>
<path opacity="0.15" d="M1314.62 333.588C1332.76 317.269 1352.7 284.717 1340.95 252.415C1339.74 249.084 1328.14 218.653 1300.17 211.818C1266.09 203.492 1248.7 240.187 1209.42 237.169C1166.89 233.901 1153.75 188.289 1131.34 192.757C1104.83 198.041 1082.28 269.974 1115.15 316.157C1154.76 371.792 1265.86 377.467 1314.62 333.588Z" fill="#8047F8"/>
<path opacity="0.15" d="M1344.47 503.326C1358.57 514.278 1374.01 536.199 1364.7 558.096C1363.74 560.353 1354.56 580.984 1332.68 585.735C1306.02 591.52 1292.59 566.786 1261.9 569.006C1228.65 571.411 1218.21 602.314 1200.72 599.396C1180.03 595.944 1162.71 547.405 1188.58 516.025C1219.74 478.223 1306.55 473.877 1344.47 503.326Z" fill="#8047F8"/>
<path opacity="0.15" d="M267.669 206.038C280.238 227.763 292.664 269.203 280.427 306.638C279.165 310.498 267.231 345.705 244.787 350.649C217.449 356.671 207.407 310.552 176.524 309.589C143.079 308.547 128.497 361.812 111.464 353.825C91.3221 344.381 80.6148 255.322 110.632 203.677C146.792 141.462 233.87 147.623 267.669 206.038Z" fill="#EBC136"/>
<path opacity="0.15" d="M853.507 529.947C827.621 510.727 802.461 472.18 828.926 433.528C831.654 429.543 857.434 393.123 904.6 384.62C962.048 374.262 982.109 417.78 1046.84 413.683C1116.94 409.246 1148.66 354.712 1184.2 359.753C1226.23 365.713 1246.76 451.166 1182.71 506.631C1105.55 573.449 923.112 581.627 853.507 529.947Z" fill="#EBC136"/>
<path opacity="0.15" d="M779.922 496.538C801.564 477.513 824.249 440.904 806.967 407.187C805.185 403.71 788.247 371.989 752.43 366.962C708.804 360.84 689.654 401.687 639.868 401.695C585.953 401.704 565.92 353.807 537.979 360.46C504.939 368.327 481.942 447.444 526.931 494.321C581.129 550.792 721.728 547.695 779.922 496.538Z" fill="#8047F8"/>
<path opacity="0.15" d="M826.81 666.342C848.453 647.316 871.138 610.708 853.856 576.99C852.074 573.514 835.136 541.792 799.319 536.766C755.693 530.644 736.543 571.491 686.757 571.499C632.842 571.508 612.808 523.611 584.867 530.264C551.828 538.131 528.83 617.248 573.82 664.124C628.018 720.596 768.617 717.499 826.81 666.342Z" fill="#FAFAFA"/>
<path opacity="0.15" d="M768.472 235.93C809.019 246.592 852.078 266.391 821.336 283.184C818.167 284.915 787.993 300.688 722.11 301.935C641.863 303.455 605.181 281.596 513.369 279.711C413.943 277.668 378.601 301.694 326.852 297.196C265.659 291.877 220.602 250.072 302 227.517C400.058 200.346 659.443 207.262 768.472 235.93Z" fill="#8047F8"/>
<path opacity="0.15" d="M258.075 478.017C277.161 455.865 297.286 413.532 282.39 375.129C280.854 371.169 266.246 335.05 234.916 329.836C196.756 323.486 179.697 370.625 136.099 371.4C88.885 372.24 71.6801 317.618 47.1649 325.677C18.1763 335.207 -2.52202 426.296 36.5443 479.364C83.6067 543.295 206.752 537.582 258.075 478.017Z" fill="#8047F8"/>
</g>
<defs>
<filter id="filter0_f_14084_1597" x="-144.948" y="-0.434814" width="1682.3" height="866.029" filterUnits="userSpaceOnUse" color-interpolation-filters="sRGB">
<feFlood flood-opacity="0" result="BackgroundImageFix"/>
<feBlend mode="normal" in="SourceGraphic" in2="BackgroundImageFix" result="shape"/>
<feGaussianBlur stdDeviation="80" result="effect1_foregroundBlur_14084_1597"/>
</filter>
</defs>
</svg>
